{"accessors":[{"bufferView":2,"componentType":5126,"count":11241,"max":[-1.2920199632644653,7.537390232086182,3.297790050506592],"min":[-5.812029838562012,2.797189950942993,-0.07940120249986649],"type":"VEC3"},{"bufferView":2,"byteOffset":134892,"componentType":5126,"count":11241,"max":[0.999583899974823,0.9999841451644897,1],"min":[-0.9977047443389893,-0.9992907643318176,-0.9999977350234985],"type":"VEC3"},{"bufferView":1,"componentType":5126,"count":11241,"max":[1.9970699548721313,0.9995120167732239],"min":[0.003009800100699067,0.0005364419776014984],"type":"VEC2"},{"bufferView":0,"componentType":5125,"count":31650,"type":"SCALAR"}],"asset":{"extras":{"author":"Tigerar1 (https://sketchfab.com/allanromanreyes)","license":"SKETCHFAB Standard (https://sketchfab.com/licenses)","source":"https://sketchfab.com/3d-models/tmnt-turtle-van-521094754fae46daa95c5fad687ee2d5","title":"TMNT Turtle Van"},"generator":"Sketchfab-15.91.0","version":"2.0"},"bufferViews":[{"buffer":0,"byteLength":126600,"name":"floatBufferViews","target":34963},{"buffer":0,"byteLength":89928,"byteOffset":126600,"byteStride":8,"name":"floatBufferViews","target":34962},{"buffer":0,"byteLength":269784,"byteOffset":216528,"byteStride":12,"name":"floatBufferViews","target":34962}],"buffers":[{"byteLength":486312,"uri":"data:application/octet-stream;base64,"}],"images":[{"uri":"data:application/octet-stream;base64,"}],"materials":[{"doubleSided":true,"name":"acmat_0","pbrMetallicRoughness":{"baseColorTexture":{"index":0},"metallicFactor":0,"roughnessFactor":0.9327282867797029}}],"meshes":[{"name":"Object_0","primitives":[{"attributes":{"NORMAL":1,"POSITION":0,"TEXCOORD_0":2},"indices":3,"material":0,"mode":4}]}],"nodes":[{"children":[1],"matrix":[1,0,0,0,0,2.220446049250313e-16,-1,0,0,1,2.220446049250313e-16,0,0,0,0,1],"name":"Sketchfab_model"},{"children":[2],"name":"Turtle_Van.obj.cleaner.materialmerger.gles"},{"mesh":0,"name":"Object_2"}],"samplers":[{"magFilter":9729,"minFilter":9987,"wrapS":10497,"wrapT":10497}],"scene":0,"scenes":[{"name":"Sketchfab_Scene","nodes":[0]}],"textures":[{"sampler":0,"source":0}]}